# xmcd CD database file
# Copyright (C) 1996 Ti Kan
#
# Track frame offsets:
# 	150
# 	13000
# 	23162
# 	37165
# 	56585
# 	69027
# 	87090
# 	101382
# 	118702
# 	134737
#
# Disc length: 2020 seconds
#
# Revision: 1
# Processed by: cddbd v1.4b41PL1 Copyright (c) Steve Scherf et al.
# Submitted via: DiscPlay 3.2
#
DISCID=7f07e20a
DTITLE=Lyle Lovett - Lyle Lovett
DYEAR=1900
DGENRE=
TTITLE0=Cowboy Hat
TTITLE1=God Will
TTITLE2=Farther Down The Line
TTITLE3=THis Old Porch
TTITLE4=Why bI Don't Know
TTITLE5=If I Were The Man You Wanted
TTITLE6=You Can't Resist It
TTITLE7=The Waltzing Fool
TTITLE8=An Acceptable Level Of Ecstasy
TTITLE9=Closing Time
EXTD=
EXTT0=
EXTT1=
EXTT2=
EXTT3=
EXTT4=
EXTT5=
EXTT6=
EXTT7=
EXTT8=
EXTT9=
PLAYORDER=
